<?xml version="1.0" encoding="UTF-8"?>
<svg xmlns="http://www.w3.org/2000/svg" xml:space="preserve" version="1.1" style="shape-rendering:geometricPrecision; text-rendering:geometricPrecision; image-rendering:optimizeQuality; fill-rule:evenodd; clip-rule:evenodd" viewBox="0 0 629 100" preserveAspectRatio='xMinYMin meet'>
<path class="fil0" d="M100 50l-21 21c-1,1 -2,1 -4,1 -1,0 -2,0 -3,-1l-18 -17c-1,-1 -1,-3 -1,-4 0,-1 0,-3 1,-3l18 -18c1,-1 2,-2 3,-2 2,0 3,1 4,2l21 21zm-50 -3c-1,0 -3,0 -3,-1l-18 -18c-1,-1 -2,-2 -2,-4 0,-1 1,-2 2,-3l21 -21 21 21c1,1 1,2 1,3 0,2 0,3 -1,4l-18 18c0,1 -2,1 -3,1zm-25 25c-2,0 -3,0 -4,-1l-21 -21 21 -21c1,-1 2,-2 4,-2 1,0 2,1 3,2l18 18c1,0 1,2 1,3 0,1 0,3 -1,4l-18 17c-1,1 -2,1 -3,1zm25 28l-21 -21c-1,-1 -2,-2 -2,-4 0,-1 1,-2 2,-3l18 -18c0,-1 2,-1 3,-1 1,0 3,0 3,1l18 18c1,1 1,2 1,3 0,2 0,3 -1,4l-21 21zm19 -25c0,-1 -1,-2 -1,-2l-15 -15c-1,-1 -2,-1 -3,-1 -1,0 -2,0 -3,1l-15 15c0,0 -1,1 -1,2 0,2 1,3 1,3l18 18 18 -18c0,0 1,-1 1,-3z"/>
<path class="fil0" d="M122 28l16 0 0 30c0,2 0,4 1,4 1,1 4,1 8,1l3 0 0 14 -13 0c-4,0 -8,-1 -11,-4 -2,-3 -4,-6 -4,-10l0 -35zm49 13c5,0 9,2 13,5 4,4 6,8 6,13 0,5 -2,10 -6,13 -4,4 -8,6 -13,6 -5,0 -10,-2 -13,-6 -4,-3 -6,-8 -6,-13 0,-5 2,-9 6,-13 3,-3 8,-5 13,-5zm0 14c-1,0 -2,0 -3,1 -1,1 -2,2 -2,3 0,2 1,3 2,3 1,1 2,2 3,2 1,0 2,-1 3,-2 1,0 2,-1 2,-3 0,-1 -1,-2 -2,-3 -1,-1 -2,-1 -3,-1zm57 22l-14 0 0 -19c0,-2 -1,-3 -1,-3 0,-1 -1,-1 -2,-1 -2,0 -3,1 -3,4l0 19 -14 0 0 -21c0,-4 2,-8 5,-11 3,-3 7,-4 12,-4 5,0 10,1 13,4 2,3 4,6 4,11l0 21zm28 -49l15 0 0 27c0,8 -2,14 -6,18 -4,3 -8,5 -14,5 -5,0 -9,-2 -13,-5 -3,-4 -5,-9 -5,-14 0,-5 2,-10 5,-13 3,-3 7,-5 12,-5 1,0 2,0 2,0 1,0 2,0 3,0l0 14c-1,0 -1,0 -2,-1 0,0 -1,0 -2,0 -1,0 -2,1 -3,2 -1,1 -2,2 -2,3 0,2 1,3 2,4 1,1 2,1 3,1 2,0 3,0 4,-1 1,-1 1,-3 1,-5l0 -30zm38 13c6,0 10,2 14,5 3,4 5,8 5,13 0,5 -2,10 -5,13 -4,4 -8,6 -14,6 -5,0 -9,-2 -13,-6 -3,-3 -5,-8 -5,-13 0,-5 2,-9 5,-13 4,-3 8,-5 13,-5zm0 14c-1,0 -2,0 -3,1 -1,1 -1,2 -1,3 0,2 0,3 1,3 1,1 2,2 3,2 2,0 3,-1 4,-2 0,0 1,-1 1,-3 0,-1 -1,-2 -1,-3 -1,-1 -2,-1 -4,-1zm57 22l-14 0 0 -19c0,-2 0,-3 -1,-3 0,-1 -1,-1 -2,-1 -1,0 -2,1 -2,4l0 19 -14 0 0 -21c0,-4 1,-8 4,-11 3,-3 7,-4 12,-4 6,0 10,1 13,4 3,3 4,6 4,11l0 21zm37 -49l0 14 -5 0c-3,0 -6,1 -8,3 -2,2 -3,4 -3,7 0,4 1,6 3,8 2,2 5,3 8,3l5 0 0 14 -8 0c-7,0 -12,-2 -17,-7 -5,-5 -7,-11 -7,-18 0,-7 2,-13 7,-17 5,-5 10,-7 17,-7l8 0zm5 14l13 0 0 4c2,-2 3,-4 5,-4 1,-1 4,-1 7,-1l2 0 0 12 -2 0c-4,0 -7,1 -8,2 -2,2 -3,5 -3,9l0 13 -14 0 0 -35zm67 13l-18 9 -4 -7 7 -4c0,0 -1,-1 -2,-1 0,0 -1,0 -2,0 -1,0 -2,0 -4,2 -1,1 -1,3 -1,4 0,2 0,4 2,6 1,1 3,2 5,2 2,0 3,0 5,-1 1,-1 2,-2 4,-4l8 8c-2,3 -5,5 -8,6 -4,2 -7,3 -11,3 -5,0 -9,-2 -13,-6 -3,-3 -5,-8 -5,-13 0,-5 2,-9 5,-13 4,-3 8,-5 13,-5 5,0 9,1 12,4 3,2 6,5 7,10zm43 22l-14 0 0 -18c0,-1 0,-2 -1,-3 -1,-1 -3,-2 -4,-2 -1,0 -3,1 -4,2 -1,1 -1,2 -1,3 0,2 0,3 1,4 1,1 2,1 4,1 1,0 2,0 3,0l0 13c-2,1 -3,1 -3,1 -1,0 -1,0 -2,0 -5,0 -9,-2 -12,-5 -4,-4 -5,-8 -5,-13 0,-5 1,-10 5,-14 4,-3 8,-5 13,-5 6,0 11,2 14,5 4,4 6,10 6,17l0 14zm5 -46l14 0 0 11 8 0 0 12 -8 0 0 6c0,2 0,3 1,4 1,1 2,1 4,1l3 0 0 12 -9 0c-4,0 -7,-1 -10,-3 -2,-3 -3,-6 -3,-11l0 -32zm34 -9c2,0 4,1 6,3 1,1 2,3 2,5 0,3 -1,5 -2,6 -2,2 -4,3 -6,3 -3,0 -5,-1 -6,-3 -2,-1 -3,-3 -3,-6 0,-2 1,-4 3,-5 1,-2 3,-3 6,-3zm-7 20l14 0 0 35 -14 0 0 -35zm17 0l14 0 4 21 4 -21 15 0 -7 27c-1,3 -2,5 -4,6 -2,2 -4,3 -8,3 -3,0 -5,-1 -7,-2 -2,-2 -3,-4 -4,-7l-7 -27zm77 13l-18 9 -4 -7 7 -4c0,0 -1,-1 -1,-1 -1,0 -2,0 -3,0 -1,0 -2,0 -3,2 -2,1 -2,3 -2,4 0,2 1,4 2,6 1,1 3,2 5,2 2,0 3,0 5,-1 1,-1 3,-2 4,-4l8 8c-2,3 -5,5 -8,6 -4,2 -7,3 -10,3 -6,0 -10,-2 -14,-6 -3,-3 -5,-8 -5,-13 0,-5 2,-9 6,-13 3,-3 7,-5 12,-5 5,0 9,1 12,4 4,2 6,5 7,10z"/>
</svg>
